<?xml version="1.0" encoding="UTF-8"?>
<svg id="Layer_2" data-name="Layer 2" xmlns="http://www.w3.org/2000/svg" viewBox="0 0 353.61 380.23">
  <defs>
    <style>
      .cls-1 {
        fill: #e6e6e6;
      }

      .cls-2 {
        fill: #247e9e;
      }

      .cls-3 {
        fill: #e84c30;
      }
    </style>
  </defs>
  <g id="Layer_1-2" data-name="Layer 1">
    <g>
      <path class="cls-3" d="M310.52,33.24c-3.99,1.84-7.33,8.13-13,5C228.91,6.5,151.13,1.06,78.52,22.74c-23.05,6.88-46.75,16.43-67.52,28.48-.91,6.59-.49,13.38-.48,20.02,0,3.9,0,7.9,0,11.5v63c0,5.95.8,13.19,1,19.5.25,8.12-.47,16.39,0,24.49,3.13,52.5,31.73,99.22,76.99,125.51,16.48,15.77,35.5,29.84,55.33,41.17,4.01,2.29,22.24,12.62,25.25,12.82,4.58.3,35.81-18.57,41.55-22.36,14.49-9.57,24.83-20.05,37.87-30.63,19.99-16.22,34.49-24.25,49.81-46.69,22.53-32.98,25.63-60.45,27.19-99.31.09-2.34.92-4.97,1-8,.63-23.11-.49-46.35.02-69.48.29-1.52,6.21-8.57,7.69-10.24.59-.66-.06-1.93,2.28-1.28-1.04,45.31,4.09,91.8-8.71,135.78-1.79,6.15-4.85,15.36-7.28,21.22-16.41,39.6-48.91,74.17-82.1,100.4-21.17,16.73-44.25,31.66-69.32,41.59C97.06,346.56,25.16,287.49,7.52,206.24-.02,171.49,1.94,136.76,1.61,101.74c-.16-17.01-2.62-34.92-1.14-52.05.32-3.66.76-3.07,2.05-5.45,12.29-6.86,24.92-12.75,38-18s28.61-11.27,42-15C158.23-9.87,240.18-.53,310.52,33.24Z"/>
      <path class="cls-3" d="M349.52,30.24c3.59,1.74,5.03,6.32,3.45,9.95-16.85,20.14-30.59,42.51-45.45,64.05-6.25,9.05-13.37,17.8-19.87,26.71,23.99,59.48,2.55,126.58-52.2,159.72-91.52,55.38-208.11-19.66-194.8-125.8,11-87.75,105-139.14,185.23-100.48,3.84,1.85,14.62,9.5,17.22,9.87,4.49.64,23.11-9.73,28.42-12.01,6.19-2.66,12.71-5.24,19-8,15.53-6.82,30.23-13.07,45-21,4.87-2.61,8.42-5.7,14-3ZM144.52,181.24v66l32.64-34.93c2.48-.44,21.64,22.25,25.81,24.98,1.17.76,2.03,1.32,3.5.91l109.03-176.47-219.98,88.01c-1.91,1.37.12,1.99,1.3,2.71,5.93,3.61,31.1,16.88,36.68,18.34,1.45.38,2.76.85,4.26.26,45.42-27.63,89.58-57.35,134.84-85.21,7.76-4.78,15.54-10.09,23.91-13.57-.48,1.02-2.36,2.59-3.26,3.29-40.99,31.64-86.15,62.14-128.42,92.52-6.49,4.66-13.18,9.55-20.31,13.19Z"/>
      <path class="cls-2" d="M47.52,79.24C107.21,13.92,197.95,4.36,269.11,59.2c1.18.91,2.9.9,2.41,3.04-5.32,2.28-23.93,12.65-28.42,12.01-2.6-.37-13.38-8.02-17.22-9.87-80.23-38.66-174.23,12.73-185.23,100.48-13.31,106.14,103.28,181.18,194.8,125.8,54.76-33.14,76.19-100.23,52.2-159.72,6.5-8.91,13.62-17.65,19.87-26.71,2.94,9.24,7.59,17.72,10.49,27.01,0,0,2.95,10.08,6.51,30.99.35,2.08.6,4.08.6,4.08.21,1.67.33,3.04.4,3.92.91,16.54-.51,40.99-10.64,68-3.84,10.24-9.14,20.48-16.54,31.32-15.33,22.44-29.82,30.46-49.81,46.69-44.85,24.52-96.63,28.03-143.68,7.18-4.82-2.14-11.83-5.56-16.32-8.18-45.26-26.29-73.86-73.01-76.99-125.51-.48-8.1.25-16.37,0-24.49,4.02-21.49,9.19-41.44,19.83-60.67,2.94-5.32,12.76-21.6,16.17-25.33Z"/>
      <path class="cls-1" d="M144.52,181.24c7.14-3.64,13.83-8.52,20.31-13.19,42.27-30.37,87.43-60.88,128.42-92.52.9-.7,2.78-2.27,3.26-3.29-8.37,3.48-16.15,8.8-23.91,13.57-45.26,27.86-89.42,57.58-134.84,85.21-1.5.6-2.82.12-4.26-.26-5.58-1.46-30.75-14.73-36.68-18.34-1.18-.72-3.21-1.34-1.3-2.71l219.98-88.01-109.03,176.47c-1.47.41-2.33-.14-3.5-.91-4.17-2.73-23.34-25.41-25.81-24.98l-32.64,34.93v-66Z"/>
    </g>
  </g>
</svg>